<svg width="36" height="36" viewBox="0 0 36 36" fill="none" xmlns="http://www.w3.org/2000/svg">
<path d="M34.6173 28.5507C34.6173 29.1507 34.484 29.7673 34.2007 30.3673C33.9173 30.9673 33.5507 31.534 33.0673 32.0673C32.2507 32.9673 31.3507 33.6173 30.334 34.034C29.334 34.4507 28.2507 34.6673 27.084 34.6673C25.384 34.6673 23.5673 34.2673 21.6507 33.4507C19.734 32.634 17.8173 31.534 15.9173 30.1507C14.0007 28.7507 12.184 27.2007 10.4507 25.484C8.73398 23.7507 7.18398 21.934 5.80065 20.034C4.43398 18.134 3.33398 16.234 2.53398 14.3507C1.73398 12.4507 1.33398 10.634 1.33398 8.90065C1.33398 7.76732 1.53398 6.68398 1.93398 5.68398C2.33398 4.66732 2.96732 3.73398 3.85065 2.90065C4.91732 1.85065 6.08398 1.33398 7.31732 1.33398C7.78398 1.33398 8.25065 1.43398 8.66732 1.63398C9.10065 1.83398 9.48399 2.13398 9.78399 2.56732L13.6507 8.01732C13.9507 8.43399 14.1673 8.81732 14.3173 9.18398C14.4673 9.53398 14.5507 9.88399 14.5507 10.2007C14.5507 10.6007 14.434 11.0007 14.2007 11.384C13.984 11.7673 13.6673 12.1673 13.2673 12.5673L12.0007 13.884C11.8173 14.0673 11.734 14.284 11.734 14.5507C11.734 14.684 11.7507 14.8007 11.784 14.934C11.834 15.0673 11.884 15.1673 11.9173 15.2673C12.2173 15.8173 12.734 16.534 13.4673 17.4007C14.2173 18.2673 15.0173 19.1507 15.884 20.034C16.784 20.9173 17.6507 21.734 18.534 22.484C19.4007 23.2173 20.1173 23.7173 20.684 24.0173C20.7673 24.0507 20.8673 24.1007 20.984 24.1507C21.1173 24.2007 21.2507 24.2173 21.4007 24.2173C21.684 24.2173 21.9007 24.1173 22.084 23.934L23.3507 22.684C23.7673 22.2673 24.1673 21.9507 24.5507 21.7507C24.934 21.5173 25.3173 21.4007 25.734 21.4007C26.0507 21.4007 26.384 21.4673 26.7507 21.6173C27.1173 21.7673 27.5007 21.984 27.9173 22.2673L33.434 26.184C33.8673 26.484 34.1673 26.834 34.3507 27.2507C34.5173 27.6673 34.6173 28.084 34.6173 28.5507Z" stroke="#25AAE1" stroke-width="1.5" stroke-miterlimit="10"/>
<path d="M28.8333 13.0013C28.8333 12.0013 28.05 10.468 26.8833 9.21797C25.8167 8.06797 24.4 7.16797 23 7.16797" stroke="#25AAE1" stroke-width="1.5" stroke-linecap="round" stroke-linejoin="round"/>
<path d="M34.6667 13.0007C34.6667 6.55065 29.45 1.33398 23 1.33398" stroke="#25AAE1" stroke-width="1.5" stroke-linecap="round" stroke-linejoin="round"/>
</svg>
