<svg width="40" height="40" viewBox="0 0 40 40" fill="none" xmlns="http://www.w3.org/2000/svg">
<path d="M14.1673 31.6673H13.334C6.66732 31.6673 3.33398 30.0007 3.33398 21.6673V13.334C3.33398 6.66732 6.66732 3.33398 13.334 3.33398H26.6673C33.334 3.33398 36.6673 6.66732 36.6673 13.334V21.6673C36.6673 28.334 33.334 31.6673 26.6673 31.6673H25.834C25.3173 31.6673 24.8173 31.9173 24.5007 32.334L22.0007 35.6673C20.9007 37.134 19.1007 37.134 18.0007 35.6673L15.5007 32.334C15.234 31.9673 14.6173 31.6673 14.1673 31.6673Z" stroke="#25AAE1" stroke-width="1.5" stroke-miterlimit="10" stroke-linecap="round" stroke-linejoin="round"/>
<path d="M11.666 13.334H28.3327" stroke="#25AAE1" stroke-width="1.5" stroke-linecap="round" stroke-linejoin="round"/>
<path d="M11.666 21.666H21.666" stroke="#25AAE1" stroke-width="1.5" stroke-linecap="round" stroke-linejoin="round"/>
</svg>
