<svg width="24" height="24" viewBox="0 0 24 24" fill="none" xmlns="http://www.w3.org/2000/svg">
<path d="M4.5 3V19.5H13.5V3H4.5ZM3.75 1.5H14.25C14.4489 1.5 14.6397 1.57902 14.7803 1.71967C14.921 1.86032 15 2.05109 15 2.25V20.25C15 20.4489 14.921 20.6397 14.7803 20.7803C14.6397 20.921 14.4489 21 14.25 21H3.75C3.55109 21 3.36032 20.921 3.21967 20.7803C3.07902 20.6397 3 20.4489 3 20.25V2.25C3 2.05109 3.07902 1.86032 3.21967 1.71967C3.36032 1.57902 3.55109 1.5 3.75 1.5Z" fill="#4285F4"/>
<path d="M6 6H12V7.5H6V6ZM6 10.5H12V12H6V10.5ZM6 15H12V16.5H6V15ZM15 12H18V13.5H15V12ZM15 15H18V16.5H15V15ZM1.5 19.5H22.5V21H1.5V19.5Z" fill="#4285F4"/>
<path d="M15 9V19.5H19.5V9H15ZM14.25 7.5H20.25C20.4489 7.5 20.6397 7.57902 20.7803 7.71967C20.921 7.86032 21 8.05109 21 8.25V20.25C21 20.4489 20.921 20.6397 20.7803 20.7803C20.6397 20.921 20.4489 21 20.25 21H14.25C14.0511 21 13.8603 20.921 13.7197 20.7803C13.579 20.6397 13.5 20.4489 13.5 20.25V8.25C13.5 8.05109 13.579 7.86032 13.7197 7.71967C13.8603 7.57902 14.0511 7.5 14.25 7.5Z" fill="#4285F4"/>
</svg>
