<svg width="24" height="24" viewBox="0 0 24 24" fill="none" xmlns="http://www.w3.org/2000/svg">
<path d="M7.20005 3.60039H16.8C17.1183 3.60039 17.4235 3.72682 17.6486 3.95186C17.8736 4.17691 18 4.48213 18 4.80039V10.8268C18.406 10.8636 18.8078 10.9379 19.2 11.0488V4.80039C19.2 4.16387 18.9472 3.55342 18.4971 3.10333C18.047 2.65325 17.4366 2.40039 16.8 2.40039H7.20005C6.56353 2.40039 5.95308 2.65325 5.50299 3.10333C5.05291 3.55342 4.80005 4.16387 4.80005 4.80039V19.2004C4.80005 19.8369 5.05291 20.4474 5.50299 20.8974C5.95308 21.3475 6.56353 21.6004 7.20005 21.6004H12.3084C12.0028 21.2302 11.7385 20.8279 11.52 20.4004H7.20005C6.88179 20.4004 6.57656 20.274 6.35152 20.0489C6.12648 19.8239 6.00005 19.5187 6.00005 19.2004H11.0484C10.9374 18.8081 10.8631 18.4064 10.8264 18.0004H6.00005V4.80039C6.00005 4.48213 6.12648 4.17691 6.35152 3.95186C6.57656 3.72682 6.88179 3.60039 7.20005 3.60039ZM8.40005 4.80039C8.08179 4.80039 7.77656 4.92682 7.55152 5.15186C7.32648 5.37691 7.20005 5.68213 7.20005 6.00039V7.20039C7.20005 7.51865 7.32648 7.82387 7.55152 8.04892C7.77656 8.27396 8.08179 8.40039 8.40005 8.40039H15.6C15.9183 8.40039 16.2235 8.27396 16.4486 8.04892C16.6736 7.82387 16.8 7.51865 16.8 7.20039V6.00039C16.8 5.68213 16.6736 5.37691 16.4486 5.15186C16.2235 4.92682 15.9183 4.80039 15.6 4.80039H8.40005ZM15.6 6.00039V7.20039H8.40005V6.00039H15.6ZM22.8 17.4004C22.8 18.8326 22.2311 20.2061 21.2184 21.2188C20.2057 22.2315 18.8322 22.8004 17.4 22.8004C15.9679 22.8004 14.5944 22.2315 13.5817 21.2188C12.569 20.2061 12 18.8326 12 17.4004C12 15.9682 12.569 14.5947 13.5817 13.582C14.5944 12.5693 15.9679 12.0004 17.4 12.0004C18.8322 12.0004 20.2057 12.5693 21.2184 13.582C22.2311 14.5947 22.8 15.9682 22.8 17.4004ZM16.824 15.0412C16.7462 14.9878 16.6558 14.9555 16.5617 14.9478C16.4677 14.94 16.3732 14.9569 16.2876 14.9968C16.2178 15.0275 16.1547 15.0715 16.1016 15.1264C15.9899 15.2409 15.9274 15.3947 15.9276 15.5548V19.2448C15.9269 19.3243 15.9419 19.4032 15.9718 19.477C16.0016 19.5507 16.0458 19.6178 16.1016 19.6744C16.1564 19.7289 16.2202 19.7735 16.29 19.8064C16.4118 19.8622 16.5499 19.8707 16.6776 19.8304C16.733 19.8122 16.7855 19.7863 16.8336 19.7536L19.5888 17.8732C19.6727 17.818 19.7402 17.7413 19.7844 17.6512C19.83 17.5604 19.8535 17.4601 19.8529 17.3586C19.8522 17.257 19.8276 17.157 19.7808 17.0668C19.7339 16.978 19.6649 16.9028 19.5804 16.8484L16.824 15.0412Z" fill="#25AAE1" fill-opacity="0.6"/>
</svg>
