<svg width="24" height="24" viewBox="0 0 24 24" fill="none" xmlns="http://www.w3.org/2000/svg">
<path d="M23.325 13.7255C23.1962 13.8247 23.0376 13.8776 22.875 13.8755C22.7586 13.8755 22.6437 13.8484 22.5396 13.7963C22.4354 13.7442 22.3449 13.6686 22.275 13.5755C21.823 12.9678 21.2346 12.4748 20.5572 12.1361C19.8798 11.7974 19.1323 11.6225 18.375 11.6255C18.1761 11.6255 17.9853 11.5464 17.8447 11.4058C17.704 11.2651 17.625 11.0744 17.625 10.8755C17.625 10.6766 17.704 10.4858 17.8447 10.3451C17.9853 10.2045 18.1761 10.1255 18.375 10.1255C18.8019 10.125 19.2198 10.0031 19.58 9.77409C19.9401 9.54504 20.2278 9.21826 20.4092 8.8319C20.5906 8.44553 20.6584 8.01553 20.6047 7.59208C20.5509 7.16863 20.3778 6.76921 20.1056 6.44044C19.8333 6.11168 19.4732 5.86714 19.0672 5.73536C18.6612 5.60359 18.2261 5.59003 17.8127 5.69625C17.3992 5.80248 17.0246 6.02411 16.7324 6.33528C16.4402 6.64645 16.2425 7.03431 16.1625 7.45359C16.1479 7.55385 16.1132 7.65012 16.0604 7.73659C16.0077 7.82307 15.9379 7.89795 15.8554 7.95673C15.7729 8.0155 15.6793 8.05695 15.5803 8.07857C15.4814 8.10019 15.379 8.10153 15.2795 8.08252C15.18 8.0635 15.0854 8.02452 15.0013 7.96794C14.9173 7.91135 14.8456 7.83832 14.7906 7.75326C14.7356 7.6682 14.6983 7.57287 14.6811 7.47303C14.664 7.37319 14.6672 7.2709 14.6906 7.17234C14.8019 6.58905 15.0501 6.04052 15.4148 5.5719C15.7795 5.10328 16.2502 4.72796 16.7883 4.47684C17.3264 4.22572 17.9165 4.10597 18.5099 4.12746C19.1033 4.14894 19.6831 4.31104 20.2017 4.60041C20.7202 4.88978 21.1626 5.29816 21.4924 5.79193C21.8223 6.28569 22.0302 6.85073 22.099 7.44054C22.1678 8.03035 22.0955 8.62806 21.8881 9.18449C21.6808 9.74091 21.3443 10.2401 20.9063 10.6411C21.9256 11.0831 22.8113 11.7845 23.475 12.6755C23.5341 12.7543 23.5771 12.8439 23.6015 12.9393C23.626 13.0347 23.6314 13.134 23.6175 13.2315C23.6035 13.329 23.5705 13.4228 23.5204 13.5076C23.4702 13.5923 23.4038 13.6664 23.325 13.7255ZM18.075 19.9223C18.1596 20.1017 18.1707 20.3071 18.1059 20.4946C18.0411 20.682 17.9055 20.8367 17.7281 20.9255C17.6247 20.9715 17.5132 20.997 17.4 21.0005C17.2595 20.9995 17.122 20.9595 17.0028 20.8851C16.8836 20.8106 16.7875 20.7045 16.725 20.5786C16.2925 19.6939 15.6204 18.9484 14.785 18.427C13.9497 17.9055 12.9847 17.6291 12 17.6291C11.0153 17.6291 10.0503 17.9055 9.21498 18.427C8.37965 18.9484 7.70748 19.6939 7.275 20.5786C7.23197 20.6673 7.17187 20.7466 7.09814 20.8121C7.02442 20.8775 6.93852 20.9278 6.84535 20.96C6.75218 20.9922 6.65358 21.0057 6.55518 20.9998C6.45678 20.9939 6.36051 20.9686 6.27188 20.9255C6.0945 20.8367 5.9589 20.682 5.89408 20.4946C5.82926 20.3071 5.84036 20.1017 5.925 19.9223C6.62202 18.4871 7.80425 17.3448 9.2625 16.6973C8.51608 16.1252 7.96766 15.3336 7.6943 14.4338C7.42094 13.5339 7.43637 12.5711 7.73843 11.6804C8.04048 10.7898 8.61399 10.0162 9.37836 9.46832C10.1427 8.92042 11.0595 8.62577 12 8.62577C12.9405 8.62577 13.8573 8.92042 14.6216 9.46832C15.386 10.0162 15.9595 10.7898 16.2616 11.6804C16.5636 12.5711 16.5791 13.5339 16.3057 14.4338C16.0323 15.3336 15.4839 16.1252 14.7375 16.6973C16.1958 17.3448 17.378 18.4871 18.075 19.9223ZM12 16.1255C12.5933 16.1255 13.1734 15.9495 13.6667 15.6199C14.1601 15.2902 14.5446 14.8217 14.7716 14.2735C14.9987 13.7253 15.0581 13.1221 14.9424 12.5402C14.8266 11.9583 14.5409 11.4237 14.1213 11.0041C13.7018 10.5846 13.1672 10.2989 12.5853 10.1831C12.0033 10.0674 11.4001 10.1268 10.852 10.3538C10.3038 10.5809 9.83524 10.9654 9.50559 11.4588C9.17595 11.9521 9 12.5321 9 13.1255C9.00247 13.9204 9.31934 14.682 9.88141 15.2441C10.4435 15.8061 11.2051 16.123 12 16.1255ZM6.375 10.8755C6.375 10.6766 6.29598 10.4858 6.15533 10.3451C6.01468 10.2045 5.82392 10.1255 5.625 10.1255C5.19815 10.125 4.78024 10.0031 4.42005 9.77409C4.05986 9.54504 3.77225 9.21826 3.59081 8.8319C3.40936 8.44553 3.34156 8.01553 3.39533 7.59208C3.44909 7.16863 3.62219 6.76921 3.89443 6.44044C4.16667 6.11168 4.52681 5.86714 4.93281 5.73536C5.33882 5.60359 5.77392 5.59003 6.18734 5.69625C6.60076 5.80248 6.97544 6.02411 7.26763 6.33528C7.55982 6.64645 7.75747 7.03431 7.8375 7.45359C7.85206 7.55385 7.88677 7.65012 7.93955 7.73659C7.99234 7.82307 8.06209 7.89795 8.14461 7.95673C8.22713 8.0155 8.3207 8.05695 8.41967 8.07857C8.51865 8.10019 8.62098 8.10153 8.72049 8.08252C8.82 8.0635 8.91462 8.02452 8.99865 7.96794C9.08269 7.91135 9.15438 7.83832 9.20942 7.75326C9.26445 7.6682 9.30168 7.57287 9.31886 7.47303C9.33604 7.37319 9.33281 7.2709 9.30938 7.17234C9.19811 6.58905 8.94992 6.04052 8.58523 5.5719C8.22053 5.10328 7.74977 4.72796 7.21168 4.47684C6.67358 4.22572 6.08355 4.10597 5.49013 4.12746C4.89671 4.14894 4.31688 4.31104 3.79835 4.60041C3.27982 4.88978 2.83743 5.29816 2.50758 5.79193C2.17772 6.28569 1.96985 6.85073 1.90105 7.44054C1.83225 8.03035 1.90451 8.62806 2.11186 9.18449C2.31922 9.74091 2.65575 10.2401 3.09375 10.6411C2.07442 11.0831 1.18874 11.7845 0.525003 12.6755C0.405656 12.8346 0.35441 13.0346 0.382541 13.2315C0.410671 13.4284 0.515873 13.6061 0.675003 13.7255C0.803824 13.8247 0.962389 13.8776 1.125 13.8755C1.24144 13.8755 1.35627 13.8484 1.46041 13.7963C1.56455 13.7442 1.65514 13.6686 1.725 13.5755C2.17705 12.9678 2.76545 12.4748 3.44284 12.1361C4.12022 11.7974 4.86767 11.6225 5.625 11.6255C5.82392 11.6255 6.01468 11.5464 6.15533 11.4058C6.29598 11.2651 6.375 11.0744 6.375 10.8755Z" fill="#25AAE1" fill-opacity="0.6"/>
</svg>
