<svg width="24" height="24" viewBox="0 0 24 24" fill="none" xmlns="http://www.w3.org/2000/svg">
<path d="M21.5309 2.4707C20.893 1.83291 20.0278 1.47461 19.1257 1.47461C18.2236 1.47461 17.3584 1.83291 16.7204 2.4707L10.3454 8.8457C10.2631 8.92781 10.2009 9.02795 10.1639 9.1382L8.28894 14.7632C8.24477 14.8953 8.23826 15.0371 8.27015 15.1727C8.30203 15.3083 8.37106 15.4324 8.46948 15.5309C8.5679 15.6295 8.69184 15.6987 8.82739 15.7309C8.96294 15.763 9.10476 15.7567 9.23694 15.7127L14.8619 13.8377C14.9727 13.8009 15.0734 13.7388 15.1559 13.6562L21.5309 7.28121C22.1687 6.64323 22.527 5.77806 22.527 4.87595C22.527 3.97385 22.1687 3.10868 21.5309 2.4707ZM17.7809 3.5312C18.1395 3.18379 18.6202 2.99128 19.1195 2.99521C19.6187 2.99915 20.0964 3.19922 20.4494 3.55224C20.8024 3.90526 21.0025 4.38293 21.0064 4.88216C21.0104 5.3814 20.8179 5.86216 20.4704 6.2207L14.2199 12.4697L10.1849 13.8152L11.5304 9.7802L17.7809 3.5312ZM11.9999 4.5002C12.1844 4.5002 12.3674 4.5077 12.5489 4.5197L13.8734 3.1952C11.9749 2.79155 9.99682 3.01246 8.23414 3.82497C6.47146 4.63748 5.01868 5.99807 4.09249 7.70376C3.16631 9.40946 2.81636 11.3689 3.09484 13.2897C3.37332 15.2106 4.26531 16.9899 5.63776 18.3624C7.01021 19.7348 8.78956 20.6268 10.7104 20.9053C12.6313 21.1838 14.5907 20.8338 16.2964 19.9077C18.0021 18.9815 19.3627 17.5287 20.1752 15.766C20.9877 14.0033 21.2086 12.0252 20.8049 10.1267L19.4804 11.4527C19.5904 12.9554 19.2453 14.4563 18.49 15.76C17.7347 17.0637 16.6042 18.1097 15.2459 18.7616C13.8876 19.4136 12.3644 19.6414 10.8748 19.4152C9.38517 19.1891 7.9982 18.5196 6.89457 17.4938C5.79095 16.4681 5.02185 15.1338 4.68748 13.6647C4.3531 12.1956 4.46896 10.6598 5.01995 9.25748C5.57093 7.85516 6.53151 6.6513 7.77652 5.80275C9.02154 4.9542 10.4933 4.50031 11.9999 4.5002Z" fill="#25AAE1" fill-opacity="0.6"/>
</svg>
