<svg width="40" height="40" viewBox="0 0 40 40" fill="none" xmlns="http://www.w3.org/2000/svg">
<rect width="40" height="40" rx="20" fill="#5BD0F4"/>
<rect width="40" height="40" rx="20" fill="white" fill-opacity="0.9"/>
<path d="M30.9885 19.7151C30.9885 18.7728 30.9137 18.0852 30.7517 17.3721H20.2192V21.6251H26.4015C26.2769 22.6821 25.6039 24.2738 24.1081 25.3434L24.0871 25.4858L27.4173 28.1214L27.648 28.1449C29.7669 26.1457 30.9885 23.2042 30.9885 19.7151Z" fill="#4285F4"/>
<path d="M20.2192 30.9214C23.248 30.9214 25.7907 29.9026 27.648 28.1454L24.1081 25.3439C23.1608 26.0188 21.8894 26.4899 20.2192 26.4899C17.2527 26.4899 14.7349 24.4908 13.8373 21.7275L13.7058 21.739L10.243 24.4767L10.1978 24.6053C12.0425 28.3491 15.8317 30.9214 20.2192 30.9214Z" fill="#34A853"/>
<path d="M13.8374 21.7267C13.6006 21.0136 13.4635 20.2495 13.4635 19.46C13.4635 18.6705 13.6006 17.9065 13.8249 17.1934L13.8186 17.0415L10.3125 14.2598L10.1978 14.3155C9.43748 15.8691 9.00122 17.6136 9.00122 19.46C9.00122 21.3065 9.43748 23.0509 10.1978 24.6045L13.8374 21.7267Z" fill="#FBBC05"/>
<path d="M20.2192 12.4314C22.3256 12.4314 23.7466 13.3609 24.5568 14.1378L27.7227 10.9797C25.7783 9.13332 23.248 8 20.2192 8C15.8317 8 12.0425 10.5722 10.1978 14.316L13.8249 17.1939C14.7349 14.4306 17.2527 12.4314 20.2192 12.4314Z" fill="#EB4335"/>
</svg>
