<svg width="20" height="15" viewBox="0 0 20 15" fill="none" xmlns="http://www.w3.org/2000/svg">
<g clip-path="url(#clip0_789_37366)">
<mask id="mask0_789_37366" style="mask-type:alpha" maskUnits="userSpaceOnUse" x="0" y="0" width="20" height="15">
<path d="M0 0H20V15H0V0Z" fill="white"/>
</mask>
<g mask="url(#mask0_789_37366)">
<path fill-rule="evenodd" clip-rule="evenodd" d="M0 0V15H20V0H0Z" fill="#2E42A5"/>
<mask id="mask1_789_37366" style="mask-type:alpha" maskUnits="userSpaceOnUse" x="0" y="0" width="20" height="15">
<path fill-rule="evenodd" clip-rule="evenodd" d="M0 0V15H20V0H0Z" fill="white"/>
</mask>
<g mask="url(#mask1_789_37366)">
<mask id="mask2_789_37366" style="mask-type:alpha" maskUnits="userSpaceOnUse" x="0" y="0" width="20" height="15">
<path d="M0 0H20V15H0V0Z" fill="white"/>
</mask>
<g mask="url(#mask2_789_37366)">
<path d="M-2.22705 13.9282L2.1742 15.7901L20.0992 2.02387L22.4211 -0.742383L17.7148 -1.36426L10.4036 4.56762L4.51857 8.56512L-2.22705 13.9282Z" fill="white"/>
<path d="M-1.625 15.2329L0.618125 16.3129L21.5875 -0.999023H18.4394L-1.62438 15.2322L-1.625 15.2329Z" fill="#F50100"/>
<path d="M22.2267 13.9282L17.8255 15.7901L-0.0995116 2.02387L-2.42139 -0.742383L2.28486 -1.36426L9.59611 4.56762L15.4811 8.56512L22.2267 13.9282Z" fill="white"/>
<path d="M22.0769 14.8641L19.8344 15.9441L10.9056 8.5316L8.25811 7.7041L-2.64502 -0.733398H0.503731L11.4 7.5041L14.2944 8.4966L22.0769 14.8641Z" fill="#F50100"/>
<mask id="mask3_789_37366" style="mask-type:alpha" maskUnits="userSpaceOnUse" x="-2" y="-2" width="24" height="19">
<path fill-rule="evenodd" clip-rule="evenodd" d="M12.3613 -1.25H7.63883V5H-1.23242V10H7.63883V16.25H12.3613V10H21.2676V5H12.3613V-1.25Z" fill="white"/>
</mask>
<g mask="url(#mask3_789_37366)">
<path fill-rule="evenodd" clip-rule="evenodd" d="M12.3613 -1.25H7.63883V5H-1.23242V10H7.63883V16.25H12.3613V10H21.2676V5H12.3613V-1.25Z" fill="#F50100"/>
<path d="M7.63883 -1.25V-2.5H6.38883V-1.25H7.63883ZM12.3613 -1.25H13.6113V-2.5H12.3613V-1.25ZM7.63883 5V6.25H8.88883V5H7.63883ZM-1.23242 5V3.75H-2.48242V5H-1.23242ZM-1.23242 10H-2.48242V11.25H-1.23242V10ZM7.63883 10H8.88883V8.75H7.63883V10ZM7.63883 16.25H6.38883V17.5H7.63883V16.25ZM12.3613 16.25V17.5H13.6113V16.25H12.3613ZM12.3613 10V8.75H11.1113V10H12.3613ZM21.2676 10V11.25H22.5176V10H21.2676ZM21.2676 5H22.5176V3.75H21.2676V5ZM12.3613 5H11.1113V6.25H12.3613V5ZM7.63883 0H12.3613V-2.5H7.63883V0ZM8.88883 5V-1.25H6.38883V5H8.88883ZM-1.23242 6.25H7.63883V3.75H-1.23242V6.25ZM0.0175781 10V5H-2.48242V10H0.0175781ZM7.63883 8.75H-1.23242V11.25H7.63883V8.75ZM8.88883 16.25V10H6.38883V16.25H8.88883ZM12.3613 15H7.63883V17.5H12.3613V15ZM11.1113 10V16.25H13.6113V10H11.1113ZM21.2676 8.75H12.3613V11.25H21.2676V8.75ZM20.0176 5V10H22.5176V5H20.0176ZM12.3613 6.25H21.2676V3.75H12.3613V6.25ZM11.1113 -1.25V5H13.6113V-1.25H11.1113Z" fill="white"/>
</g>
</g>
</g>
</g>
</g>
<defs>
<clipPath id="clip0_789_37366">
<rect width="20" height="15" rx="2" fill="white"/>
</clipPath>
</defs>
</svg>
