<svg width="40" height="40" viewBox="0 0 40 40" fill="none" xmlns="http://www.w3.org/2000/svg">
<path d="M10 16.6673V13.334C10 7.81732 11.6667 3.33398 20 3.33398C28.3333 3.33398 30 7.81732 30 13.334V16.6673" stroke="white" stroke-width="2" stroke-linecap="round" stroke-linejoin="round"/>
<path d="M20.0002 30.8333C22.3013 30.8333 24.1668 28.9679 24.1668 26.6667C24.1668 24.3655 22.3013 22.5 20.0002 22.5C17.699 22.5 15.8335 24.3655 15.8335 26.6667C15.8335 28.9679 17.699 30.8333 20.0002 30.8333Z" stroke="white" stroke-width="2" stroke-linecap="round" stroke-linejoin="round"/>
<path d="M28.3335 36.666H11.6668C5.00016 36.666 3.3335 34.9994 3.3335 28.3327V24.9993C3.3335 18.3327 5.00016 16.666 11.6668 16.666H28.3335C35.0002 16.666 36.6668 18.3327 36.6668 24.9993V28.3327C36.6668 34.9994 35.0002 36.666 28.3335 36.666Z" stroke="white" stroke-width="2" stroke-linecap="round" stroke-linejoin="round"/>
</svg>
