<svg width="22" height="22" viewBox="0 0 22 22" fill="none" xmlns="http://www.w3.org/2000/svg">
<path d="M20.166 5.49967V7.71801C20.166 9.16634 19.2493 10.083 17.801 10.083H14.666V3.67551C14.666 2.65801 15.5002 1.83301 16.5177 1.83301C17.5168 1.84217 18.4335 2.24551 19.0935 2.90551C19.7535 3.57467 20.166 4.49134 20.166 5.49967Z" stroke="#292D32" stroke-width="1.5" stroke-miterlimit="10" stroke-linecap="round" stroke-linejoin="round"/>
<path d="M1.83398 6.41634V19.2497C1.83398 20.0105 2.69565 20.4413 3.30065 19.983L4.86815 18.8097C5.23482 18.5347 5.74815 18.5713 6.07815 18.9013L7.59982 20.4322C7.95732 20.7897 8.54398 20.7897 8.90148 20.4322L10.4415 18.8922C10.7623 18.5713 11.2757 18.5347 11.6332 18.8097L13.2007 19.983C13.8057 20.4322 14.6673 20.0013 14.6673 19.2497V3.66634C14.6673 2.65801 15.4923 1.83301 16.5007 1.83301H6.41732H5.50065C2.75065 1.83301 1.83398 3.47384 1.83398 5.49967V6.41634Z" stroke="#292D32" stroke-width="1.5" stroke-miterlimit="10" stroke-linecap="round" stroke-linejoin="round"/>
<path d="M8.25 11.9258H11" stroke="#292D32" stroke-width="1.5" stroke-linecap="round" stroke-linejoin="round"/>
<path d="M8.25 8.25879H11" stroke="#292D32" stroke-width="1.5" stroke-linecap="round" stroke-linejoin="round"/>
<path d="M5.49609 11.917H5.50433" stroke="#292D32" stroke-width="2" stroke-linecap="round" stroke-linejoin="round"/>
<path d="M5.49609 8.25H5.50433" stroke="#292D32" stroke-width="2" stroke-linecap="round" stroke-linejoin="round"/>
</svg>
