<svg width="30" height="18" viewBox="0 0 30 18" fill="none" xmlns="http://www.w3.org/2000/svg">
<path d="M18.1573 9.39951C18.1573 14.102 14.1136 17.9123 9.12359 17.9123C4.13362 17.9123 0.0898438 14.1012 0.0898438 9.39951C0.0898438 4.69785 4.13461 0.886719 9.12359 0.886719C14.1126 0.886719 18.1573 4.69785 18.1573 9.39951Z" fill="#E2574C"/>
<path d="M19.971 0.886719C17.945 0.886719 16.0799 1.52264 14.5726 2.58422L14.5798 2.58506C14.8763 2.85488 15.2033 3.04479 15.4555 3.35542L13.5759 3.38353C13.2813 3.66363 13.0129 3.96837 12.7599 4.28507H16.0744C16.3265 4.57021 16.5597 4.81801 16.7712 5.13294H12.159C11.99 5.40706 11.8337 5.68884 11.6972 5.98164H17.2962C17.4426 6.27359 17.5736 6.49413 17.6848 6.80317H11.3656C11.2653 7.0969 11.1795 7.39735 11.1144 7.70378H17.9496C18.0165 7.99835 18.0679 8.2707 18.1032 8.54828H10.9788C10.949 8.82838 10.9336 9.11268 10.9336 9.3996H18.1546C18.1546 9.70099 18.132 9.98015 18.0995 10.2509H10.9788C11.0095 10.5395 11.0547 10.823 11.1144 11.1022H17.9387C17.8682 11.378 17.7868 11.6555 17.6847 11.9433H11.3448C11.4405 12.2344 11.5572 12.517 11.6845 12.7928H17.2962C17.1408 13.1027 16.9646 13.3504 16.7704 13.6407H12.1428C12.3254 13.9386 12.5269 14.2229 12.7455 14.4954L16.0745 14.5421C15.7908 14.863 15.4266 15.0563 15.0949 15.3372C15.1129 15.3509 14.5645 15.3356 13.4846 15.3194C15.1274 16.9164 17.4236 17.9124 19.9709 17.9124C24.9618 17.9124 29.0073 14.1012 29.0073 9.3996C29.0073 4.69803 24.9627 0.886719 19.971 0.886719Z" fill="#F4B459"/>
</svg>
