<svg width="24" height="24" viewBox="0 0 24 24" fill="none" xmlns="http://www.w3.org/2000/svg">
<g clip-path="url(#clip0_1331_44099)">
<path d="M7.76227 12.0913C7.76227 12.5998 7.35802 12.9868 6.84577 12.9868C6.46252 12.9868 6.17902 12.77 6.17902 12.362C6.17902 11.8535 6.57502 11.4455 7.08352 11.4455C7.47127 11.4455 7.76302 11.6833 7.76302 12.0913H7.76227ZM3.35377 10.0708H3.15802C3.09577 10.0708 3.03277 10.1128 3.02452 10.1833L2.84527 11.2963L3.18727 11.2835C3.64552 11.2835 3.99952 11.2213 4.08277 10.6918C4.17877 10.133 3.82477 10.0708 3.35377 10.0708ZM15.1873 10.0708H14.9998C14.9248 10.0708 14.8745 10.1128 14.8663 10.1833L14.6915 11.2963L15.0245 11.2835C15.566 11.2835 15.941 11.1583 15.941 10.5335C15.9365 10.0918 15.5413 10.0708 15.1865 10.0708H15.1873ZM23.9998 4.66627V19.3333C23.9996 19.8637 23.7888 20.3724 23.4137 20.7474C23.0386 21.1225 22.53 21.3333 21.9995 21.3335H1.99927C1.46884 21.3333 0.960179 21.1225 0.585103 20.7474C0.210026 20.3724 -0.000777785 19.8637 -0.000976562 19.3333V4.66627C-0.000777785 4.13583 0.210026 3.62717 0.585103 3.25209C0.960179 2.87702 1.46884 2.66621 1.99927 2.66602H21.9995C22.53 2.66621 23.0386 2.87702 23.4137 3.25209C23.7888 3.62717 23.9996 4.13583 23.9998 4.66627ZM5.34577 10.3078C5.34577 9.43252 4.67077 9.14077 3.89977 9.14077H2.23327C2.17944 9.14118 2.12763 9.16134 2.08767 9.19742C2.04772 9.23351 2.0224 9.283 2.01652 9.33652L1.33327 13.5905C1.32052 13.6738 1.38352 13.757 1.46677 13.757H2.25877C2.37127 13.757 2.47552 13.6363 2.48827 13.5193L2.67577 12.4108C2.71777 12.1108 3.22552 12.215 3.42577 12.215C4.61752 12.215 5.34652 11.507 5.34652 10.307L5.34577 10.3078ZM8.85427 10.6745H8.06227C7.90402 10.6745 7.89577 10.904 7.88752 11.0165C7.64602 10.6625 7.29577 10.5995 6.89977 10.5995C5.87902 10.5995 5.09977 11.495 5.09977 12.4828C5.09977 13.295 5.60827 13.8245 6.42052 13.8245C6.79552 13.8245 7.26202 13.6205 7.52452 13.3288C7.50028 13.413 7.48618 13.4999 7.48252 13.5875C7.48252 13.6835 7.52452 13.754 7.61602 13.754H8.33302C8.44552 13.754 8.54152 13.6333 8.56252 13.5163L8.98777 10.8373C9.00052 10.7578 8.93752 10.6745 8.85427 10.6745ZM10.5418 14.7538L13.196 10.895C13.217 10.874 13.217 10.853 13.217 10.8245C13.217 10.754 13.1548 10.679 13.0835 10.679H12.2833C12.246 10.6805 12.2097 10.6907 12.1771 10.7088C12.1445 10.7269 12.1167 10.7524 12.0958 10.7833L10.9918 12.4085L10.5335 10.8463C10.5163 10.7987 10.4852 10.7575 10.4443 10.7278C10.4034 10.6981 10.3545 10.6814 10.304 10.6798H9.52477C9.45352 10.6798 9.39127 10.7548 9.39127 10.8253C9.39127 10.8755 10.2035 13.1923 10.2748 13.4128C10.1623 13.571 9.42052 14.6045 9.42052 14.7298C9.42052 14.8048 9.48277 14.8633 9.55402 14.8633H10.3543C10.3917 14.8608 10.4281 14.8498 10.4606 14.8311C10.4931 14.8123 10.5209 14.7864 10.5418 14.7553V14.7538ZM17.1793 10.3078C17.1793 9.43252 16.5043 9.14077 15.7333 9.14077H14.0788C14.0234 9.14032 13.9697 9.15987 13.9275 9.19583C13.8854 9.23178 13.8576 9.28173 13.8493 9.33652L13.1743 13.5868C13.166 13.67 13.2283 13.7533 13.3078 13.7533H14.162C14.2453 13.7533 14.3075 13.691 14.3285 13.6198L14.516 12.4115C14.558 12.1115 15.0665 12.2158 15.266 12.2158C16.4495 12.2158 17.1785 11.5078 17.1785 10.3078H17.1793ZM20.687 10.6745H19.895C19.7368 10.6745 19.7285 10.904 19.7158 11.0165C19.4863 10.6625 19.1323 10.5995 18.728 10.5995C17.7073 10.5995 16.928 11.495 16.928 12.4828C16.928 13.295 17.4365 13.8245 18.2488 13.8245C18.6365 13.8245 19.103 13.6205 19.3528 13.3288C19.34 13.391 19.3108 13.5245 19.3108 13.5875C19.3108 13.6835 19.3528 13.754 19.4443 13.754H20.165C20.2775 13.754 20.3735 13.6333 20.3945 13.5163L20.8198 10.8373C20.8325 10.7578 20.7695 10.6745 20.6863 10.6745H20.687ZM22.6663 9.28702C22.6663 9.20377 22.604 9.14152 22.5328 9.14152H21.7618C21.6995 9.14152 21.6365 9.19177 21.6283 9.25401L20.9533 13.5875L20.9413 13.6085C20.9413 13.6835 21.0035 13.754 21.0868 13.754H21.7745C21.8788 13.754 21.983 13.6333 21.9913 13.5163L22.6663 9.29977V9.28702ZM18.9163 11.4455C18.4078 11.4455 18.0118 11.8498 18.0118 12.362C18.0118 12.7663 18.3035 12.9868 18.6868 12.9868C19.187 12.9868 19.5913 12.6035 19.5913 12.0913C19.5958 11.6833 19.304 11.4455 18.9163 11.4455Z" fill="#25AAE1"/>
</g>
<defs>
<clipPath id="clip0_1331_44099">
<rect width="24" height="24" fill="white"/>
</clipPath>
</defs>
</svg>
