<svg width="40" height="40" viewBox="0 0 40 40" fill="none" xmlns="http://www.w3.org/2000/svg">
<path d="M15.0002 36.6654H25.0002C33.3335 36.6654 36.6668 33.332 36.6668 24.9987V14.9987C36.6668 6.66536 33.3335 3.33203 25.0002 3.33203H15.0002C6.66683 3.33203 3.3335 6.66536 3.3335 14.9987V24.9987C3.3335 33.332 6.66683 36.6654 15.0002 36.6654Z" stroke="white" stroke-width="1.5" stroke-linecap="round" stroke-linejoin="round"/>
<path d="M23.9185 18.1826C23.7518 19.3659 23.0518 20.3659 22.0852 20.9659V24.2659C22.0852 25.4159 21.1518 26.3492 20.0018 26.3492C18.8518 26.3492 17.9185 25.4159 17.9185 24.2659V20.9659C16.9518 20.3659 16.2518 19.3659 16.0852 18.1826C16.0518 17.9992 16.0352 17.7992 16.0352 17.5992C16.0352 15.0659 18.4352 13.0992 21.0685 13.7992C22.4019 14.1492 23.4851 15.2326 23.8351 16.5659C23.9851 17.1159 24.0018 17.6659 23.9185 18.1826Z" stroke="white" stroke-width="1.5" stroke-miterlimit="10"/>
<path d="M36.6694 18.1836H23.9194" stroke="white" stroke-width="1.5" stroke-miterlimit="10"/>
<path d="M16.0835 18.1836H3.3335" stroke="white" stroke-width="1.5" stroke-miterlimit="10"/>
</svg>
