<svg width="40" height="41" viewBox="0 0 40 41" fill="none" xmlns="http://www.w3.org/2000/svg">
<path d="M36.1167 24.2109L35.4501 32.5443C35.2001 35.0943 35.0001 37.0443 30.4834 37.0443H9.51672C5.00006 37.0443 4.80006 35.0943 4.55006 32.5443L3.88339 24.2109C3.75006 22.8276 4.18339 21.5443 4.96673 20.5609C4.98339 20.5443 4.98339 20.5443 5.00006 20.5276C5.91673 19.4109 7.30006 18.7109 8.85006 18.7109H31.1501C32.7001 18.7109 34.0667 19.4109 34.9667 20.4943C34.9834 20.5109 35.0001 20.5276 35.0001 20.5443C35.8167 21.5276 36.2667 22.8109 36.1167 24.2109Z" stroke="#292D32" stroke-width="1.5" stroke-miterlimit="10"/>
<path d="M5.83337 19.4284V10.8451C5.83337 5.17839 7.25004 3.76172 12.9167 3.76172H15.0334C17.15 3.76172 17.6334 4.39505 18.4334 5.46172L20.55 8.29505C21.0834 8.99505 21.4 9.42839 22.8167 9.42839H27.0667C32.7334 9.42839 34.15 10.8451 34.15 16.5117V19.4951" stroke="#292D32" stroke-width="1.5" stroke-miterlimit="10" stroke-linecap="round" stroke-linejoin="round"/>
<path d="M15.7167 28.7109H24.2833" stroke="#292D32" stroke-width="1.5" stroke-miterlimit="10" stroke-linecap="round" stroke-linejoin="round"/>
</svg>
