<svg width="40" height="41" viewBox="0 0 40 41" fill="none" xmlns="http://www.w3.org/2000/svg">
<path d="M15 37.0443H25C33.3333 37.0443 36.6667 33.7109 36.6667 25.3776V15.3776C36.6667 7.04427 33.3333 3.71094 25 3.71094H15C6.66668 3.71094 3.33334 7.04427 3.33334 15.3776V25.3776C3.33334 33.7109 6.66668 37.0443 15 37.0443Z" stroke="#292D32" stroke-width="1.5" stroke-linecap="round" stroke-linejoin="round"/>
<path d="M15 17.0446C16.8409 17.0446 18.3333 15.5522 18.3333 13.7113C18.3333 11.8703 16.8409 10.3779 15 10.3779C13.159 10.3779 11.6667 11.8703 11.6667 13.7113C11.6667 15.5522 13.159 17.0446 15 17.0446Z" stroke="#292D32" stroke-width="1.5" stroke-linecap="round" stroke-linejoin="round"/>
<path d="M4.45001 31.9615L12.6667 26.4449C13.9833 25.5615 15.8833 25.6615 17.0667 26.6782L17.6167 27.1615C18.9167 28.2782 21.0167 28.2782 22.3167 27.1615L29.25 21.2115C30.55 20.0949 32.65 20.0949 33.95 21.2115L36.6667 23.5449" stroke="#292D32" stroke-width="1.5" stroke-linecap="round" stroke-linejoin="round"/>
</svg>
