<svg width="40" height="41" viewBox="0 0 40 41" fill="none" xmlns="http://www.w3.org/2000/svg">
<path d="M36.6667 25.3776V15.3776C36.6667 7.04427 33.3333 3.71094 25 3.71094H15C6.66667 3.71094 3.33333 7.04427 3.33333 15.3776V25.3776C3.33333 33.7109 6.66667 37.0443 15 37.0443H25C33.3333 37.0443 36.6667 33.7109 36.6667 25.3776Z" stroke="#292D32" stroke-width="1.5" stroke-linecap="round" stroke-linejoin="round"/>
<path d="M4.2 12.2275H35.8" stroke="#292D32" stroke-width="1.5" stroke-linecap="round" stroke-linejoin="round"/>
<path d="M14.2 3.89453V11.9945" stroke="#292D32" stroke-width="1.5" stroke-linecap="round" stroke-linejoin="round"/>
<path d="M25.8 3.89453V11.2445" stroke="#292D32" stroke-width="1.5" stroke-linecap="round" stroke-linejoin="round"/>
<path d="M16.25 24.4611V22.4611C16.25 19.8945 18.0667 18.8445 20.2833 20.1278L22.0167 21.1278L23.75 22.1278C25.9667 23.4111 25.9667 25.5111 23.75 26.7945L22.0167 27.7945L20.2833 28.7945C18.0667 30.0778 16.25 29.0278 16.25 26.4611V24.4611V24.4611Z" stroke="#292D32" stroke-width="1.5" stroke-miterlimit="10" stroke-linecap="round" stroke-linejoin="round"/>
</svg>
